# xmcd
#
# Track frame offsets:
#	150
#	14462
#	30896
#	46303
#	59296
#	75335
#	88674
#	104085
#	126816
#	145465
#	164783
#	185510
#
# Disc length: 2629 seconds
# Revision: 0
# Processed by: cddbd v1.5.2PL0 Copyright (c) Steve Scherf et al.
# Submitted via: dBpowerAMP V12.0
#
DISCID=9f0a430c
DTITLE=John Cee Stannard and Blue Horizon - Bus Depot Blues
DYEAR=2014
DGENRE=Blues
TTITLE0=Solitary Vacation With The Blues
TTITLE1=Bus Depot
TTITLE2=Hard Times - 83
TTITLE3=Lady Luck
TTITLE4=I'll Take Care Of Mine
TTITLE5=That's Alright
TTITLE6=Blues In My Life
TTITLE7=Flood Water
TTITLE8=When You Need Them Most
TTITLE9=Bad Luck Rain
TTITLE10=Best I Can For You
TTITLE11=Not Until It's Gone
EXTD=
EXTT0=
EXTT1=
EXTT2=
EXTT3=
EXTT4=
EXTT5=
EXTT6=
EXTT7=
EXTT8=
EXTT9=
EXTT10=
EXTT11=
PLAYORDER=
